HIERARCHY
ROOT Model_Hips
{
	OFFSET 0.000000 96.915077 0.000000
	CHANNELS 6 Xposition Yposition Zposition Xrotation Yrotation Zrotation
	JOINT Model_Spine
	{
		OFFSET 0.000000 11.137703 -1.289900
		CHANNELS 3 Xrotation Yrotation Zrotation
		JOINT Model_Spine1
		{
			OFFSET 0.000000 12.993942 -1.504922
			CHANNELS 3 Xrotation Yrotation Zrotation
			JOINT Model_Spine2
			{
				OFFSET 0.000000 14.850220 -1.719911
				CHANNELS 3 Xrotation Yrotation Zrotation
				JOINT Model_Neck
				{
					OFFSET 0.000000 16.706543 -1.934903
					CHANNELS 3 Xrotation Yrotation Zrotation
					JOINT Model_Head
					{
						OFFSET 0.000000 10.471298 2.002100
						CHANNELS 3 Xrotation Yrotation Zrotation
						JOINT Model_HeadTop_End
						{
							OFFSET 0.000000 20.842606 3.985100
							CHANNELS 3 Xrotation Yrotation Zrotation
							End Site
							{
								OFFSET 0.000000 21.220154 0.000000
							}
						}
					}
				}
				JOINT Model_LeftShoulder
				{
					OFFSET 7.008500 14.768600 -1.919946
					CHANNELS 3 Xrotation Yrotation Zrotation
					JOINT Model_LeftArm
					{
						OFFSET 14.126271 -3.718048 0.029937
						CHANNELS 3 Xrotation Yrotation Zrotation
						JOINT Model_LeftForeArm
						{
							OFFSET 28.282801 0.000000 0.000000
							CHANNELS 3 Xrotation Yrotation Zrotation
							JOINT Model_LeftHand
							{
								OFFSET 26.204689 0.000000 0.000000
								CHANNELS 3 Xrotation Yrotation Zrotation
								End Site
								{
									OFFSET 26.204704 0.000000 0.000000
								}
							}
						}
					}
				}
				JOINT Model_RightShoulder
				{
					OFFSET -7.008500 14.768555 -1.949840
					CHANNELS 3 Xrotation Yrotation Zrotation
					JOINT Model_RightArm
					{
						OFFSET -14.126281 -3.718018 -0.029932
						CHANNELS 3 Xrotation Yrotation Zrotation
						JOINT Model_RightForeArm
						{
							OFFSET -28.283798 0.000000 -0.000001
							CHANNELS 3 Xrotation Yrotation Zrotation
							JOINT Model_RightHand
							{
								OFFSET -26.204193 0.000000 -0.000001
								CHANNELS 3 Xrotation Yrotation Zrotation
								End Site
								{
									OFFSET -26.204208 0.000000 -0.000001
								}
							}
						}
					}
				}
			}
		}
	}
	JOINT Model_LeftUpLeg
	{
		OFFSET 8.327700 -6.193199 -0.402800
		CHANNELS 3 Xrotation Yrotation Zrotation
		JOINT Model_LeftLeg
		{
			OFFSET 0.735802 -42.108742 -0.610721
			CHANNELS 3 Xrotation Yrotation Zrotation
			JOINT Model_LeftFoot
			{
				OFFSET -0.735806 -36.833748 -0.172876
				CHANNELS 3 Xrotation Yrotation Zrotation
				JOINT Model_LeftToeBase
				{
					OFFSET -0.565857 -11.977769 16.297714
					CHANNELS 3 Xrotation Yrotation Zrotation
					JOINT Model_LeftToe_End
					{
						OFFSET -0.111712 -0.312793 7.857784
						CHANNELS 3 Xrotation Yrotation Zrotation
						End Site
						{
							OFFSET -0.111712 -0.312793 7.857784
						}
					}
				}
			}
		}
	}
	JOINT Model_RightUpLeg
	{
		OFFSET -8.327700 -6.193199 -0.516500
		CHANNELS 3 Xrotation Yrotation Zrotation
		JOINT Model_RightLeg
		{
			OFFSET -0.735785 -42.108738 -0.434061
			CHANNELS 3 Xrotation Yrotation Zrotation
			JOINT Model_RightFoot
			{
				OFFSET 0.735776 -36.833748 -0.021630
				CHANNELS 3 Xrotation Yrotation Zrotation
				JOINT Model_RightToeBase
				{
					OFFSET 0.565817 -11.977745 15.903093
					CHANNELS 3 Xrotation Yrotation Zrotation
					JOINT Model_RightToe_End
					{
						OFFSET 0.111702 -0.312791 7.811342
						CHANNELS 3 Xrotation Yrotation Zrotation
						End Site
						{
							OFFSET 0.111702 -0.312791 7.811342
						}
					}
				}
			}
		}
	}
}
MOTION
Frames: 6
Frame Time: 0.016667
-0.433455 97.759163 -124.422707 1.514019 -8.600456 -0.177438 0.859868 5.131164 1.004479 2.578771 6.938698 -0.481905 2.287793 2.311764 0.702786 -0.989518 -0.670670 0.125525 -0.974852 -0.402116 0.140065 0.000000 -0.000000 0.000000 1.833410 3.530125 -10.430754 18.854659 -15.403694 -53.365248 0.000007 -43.447653 0.000037 0.000002 -0.000001 0.000001 1.709610 11.289842 -3.971283 -10.081363 31.301852 83.162375 -0.000004 61.500690 0.000003 -0.000001 -0.000000 0.000003 -29.307662 5.784947 1.794222 14.597752 4.500666 -0.696915 31.270290 2.246738 -8.252108 -12.676651 -0.546633 5.591493 0.000001 -0.000000 0.000000 5.026220 -8.702262 -1.494512 38.112968 -4.040153 -5.846116 13.180836 1.045109 6.786354 -27.819342 -2.170688 7.202477 -0.000002 0.000001 0.000000 
-0.422534 98.505539 -129.329437 2.459663 -8.365774 0.734032 2.417089 4.865817 0.325545 1.860221 6.859573 -0.684257 1.571412 2.232531 0.428424 -1.103031 -1.059912 0.140236 -1.069441 -0.341572 0.089727 -0.000000 -0.000000 -0.000000 1.808135 3.421362 -10.447957 18.470729 -16.952898 -53.807537 -0.000007 -45.793195 0.000011 0.000002 -0.000000 -0.000000 1.519640 9.990075 -2.942225 -10.800606 30.864689 83.160681 0.000033 59.339516 -0.000039 0.000000 0.000001 0.000003 -31.440553 5.991844 3.026558 14.722322 5.023233 -1.803034 37.861856 -1.781233 -14.120168 -13.941555 -1.673924 9.667247 -0.000001 0.000000 -0.000000 6.803381 -8.633310 -1.090237 29.903951 -3.956254 -6.073567 15.797193 1.229169 6.962195 -37.121173 -2.105521 5.138389 0.000003 -0.000001 0.000000 
-0.405596 98.849899 -134.292725 3.274441 -8.072696 1.745022 4.191042 4.517625 -0.512328 1.094451 6.746753 -0.897636 0.805870 2.122272 0.136074 -1.228016 -1.646005 0.202530 -1.169323 -0.247529 0.043605 -0.000000 -0.000000 0.000000 1.787172 3.282143 -10.476919 18.018784 -18.576755 -54.166119 0.000003 -48.293990 0.000020 0.000000 -0.000002 0.000002 1.344356 8.590956 -1.708932 -11.673093 30.070987 82.818865 0.000047 56.992731 -0.000037 0.000001 -0.000000 0.000003 -34.864284 6.248794 3.542638 22.727332 7.106750 -3.132768 28.369778 -2.565766 -16.728846 -3.902873 -0.447432 5.062153 -0.000001 0.000001 -0.000000 7.968935 -8.438268 -1.010875 22.830700 -3.933003 -6.069872 16.235104 1.273209 7.146102 -43.395569 -1.612872 3.255060 -0.000001 -0.000002 0.000000 
-0.429185 98.388138 -138.726318 3.761839 -7.938364 2.657762 4.836032 4.188818 -1.235728 0.902082 6.637014 -1.052019 0.602554 2.021143 -0.033362 -1.350673 -2.187642 0.273905 -1.271143 -0.127700 0.004758 0.000000 -0.000000 -0.000000 1.774068 3.091195 -10.519555 17.449844 -20.330915 -54.376024 -0.000016 -51.061535 -0.000028 -0.000002 0.000000 0.000001 1.222863 7.071101 -0.419589 -12.435462 29.015200 82.184313 0.000007 54.268172 -0.000011 -0.000000 -0.000003 0.000004 -38.526505 6.534379 3.806265 34.275901 8.237239 -4.372861 14.577999 -0.494547 -17.529786 4.168487 0.000003 -0.000006 -0.000001 0.000000 0.000002 7.183001 -8.195060 -1.577003 21.798982 -4.037949 -5.971345 7.711069 0.742940 8.661496 -38.157108 -0.452500 1.137743 0.000000 0.000000 0.000000 
-0.479347 97.581680 -142.852402 4.055624 -7.913556 3.506503 4.821313 3.875466 -1.877260 1.043784 6.526475 -1.176828 0.728055 1.918340 -0.135869 -1.466906 -2.598183 0.333934 -1.372187 0.005976 -0.029099 -0.000000 0.000000 -0.000000 1.773808 2.848235 -10.584303 16.562970 -22.259964 -53.903399 0.000006 -54.150634 0.000032 0.000002 0.000000 0.000000 1.176345 5.456037 0.811849 -12.935049 27.890891 81.320109 0.000020 51.140276 -0.000005 0.000001 -0.000001 -0.000001 -41.086088 6.992107 4.147564 44.774752 9.090664 -5.502820 3.961299 1.640670 -18.058211 5.898380 -0.000001 0.000002 0.000001 -0.000001 -0.000001 6.605552 -8.025270 -2.004003 21.000764 -3.578552 -5.723907 -2.251216 -0.036324 8.405326 -28.510166 0.001981 -0.008141 0.000000 0.000000 0.000000 
-0.555372 96.895355 -146.727737 4.096389 -8.058565 4.249234 4.325615 3.574855 -2.369565 1.461536 6.408309 -1.285650 1.126999 1.795487 -0.191375 -1.569748 -2.659937 0.350643 -1.469339 0.155408 -0.055278 0.000002 0.000000 -0.000000 1.778460 2.579356 -10.656237 15.498686 -24.295408 -53.221462 0.000008 -57.377865 0.000012 -0.000001 0.000000 -0.000000 1.202603 3.824393 1.943268 -13.117706 26.831418 80.258992 -0.000009 47.796936 0.000007 0.000003 0.000000 0.000001 -43.216622 7.820571 4.877727 54.932732 8.606984 -6.249031 2.094944 2.550071 -17.701094 6.029156 -0.000005 0.000000 -0.000001 -0.000002 0.000000 6.118338 -7.899366 -2.241122 19.649088 -3.059547 -5.447063 -9.533776 -0.456259 6.886599 -19.758989 0.008651 -0.071552 -0.000000 -0.000002 0.000000 
